<!DOCTYPE svg PUBLIC "-//W3C//DTD SVG 1.1//EN" "http://www.w3.org/Graphics/SVG/1.1/DTD/svg11.dtd">
<!-- Uploaded to: SVG Repo, www.svgrepo.com, Transformed by: SVG Repo Mixer Tools -->
<svg fill="#9F5E40" height="100px" width="100px" version="1.1" id="Layer_1" xmlns="http://www.w3.org/2000/svg" xmlns:xlink="http://www.w3.org/1999/xlink" viewBox="0 0 512 512" xml:space="preserve" transform="matrix(-1, 0, 0, 1, 0, 0)">
<g id="SVGRepo_bgCarrier" stroke-width="0"/>
<g id="SVGRepo_tracerCarrier" stroke-linecap="round" stroke-linejoin="round"/>
<g id="SVGRepo_iconCarrier"> <g> <g> <path d="M390.103,275.905l11.737-92.292l57.355-69.02c3.789-4.559,4.579-10.725,2.061-16.092 c-2.518-5.368-7.766-8.703-13.695-8.703h-40.945l-69.232-34.327c-3.367-1.669-7.131-2.551-10.887-2.551h-1.84l5.277-36.818 c0.581-4.05-0.623-8.146-3.302-11.238C323.951,1.773,320.067,0,315.975,0h-46.473c-4.091,0-7.975,1.773-10.654,4.865 c-2.68,3.092-3.884,7.188-3.303,11.238l5.279,36.818h-1.841c-3.757,0-7.522,0.882-10.888,2.551l-36.046,17.872l-64.679-1.057 c-0.795-0.019-1.566,0.091-2.302,0.299c-31.708-2.452-61.466,14.022-76.188,42.388l-12.856,24.77 c-12.516,24.115-7.226,53.731,12.863,72.022l48.922,44.544c5.958,5.424,13.463,8.099,20.949,8.099 c8.465-0.001,16.902-3.422,23.037-10.16c3.999-4.392,5.613-10.25,4.427-16.071c-1.187-5.821-4.965-10.579-10.366-13.056 c-7.445-3.414-13.283-9.457-16.44-17.016c-6.322-15.142-17.052-27.683-31.033-36.267c-3.764-2.312-5.118-7.193-3.084-11.113 c6.193-11.931,19.985-17.628,32.79-13.548c9.601,3.058,20.117,2.886,29.614-0.485c3.653-1.296,7.144-2.994,10.44-5.052h0.157 l17.074,134.265c0.744,5.851,4.618,10.637,9.799,12.783v24.424c-5.182,2.146-9.056,6.932-9.799,12.783l-21.395,168.239 c-0.575,4.519,0.823,9.069,3.834,12.488s7.35,5.379,11.905,5.379h206.039c4.555,0,8.893-1.961,11.904-5.378 c3.011-3.419,4.409-7.969,3.835-12.489L390.1,325.894c-0.744-5.851-4.618-10.636-9.8-12.783v-24.423 C385.485,286.542,389.359,281.756,390.103,275.905z M411.75,105.681h34.203l-40.383,48.595L411.75,105.681z M326.496,68.803 c1.322,0,2.648,0.31,3.833,0.899l40.535,20.098h-36.555l-14.116-20.997H326.496z M313.921,15.882l-5.309,37.039h-31.746 l-5.31-37.039H313.921z M284.422,68.803h16.632l14.116,20.997h-44.864L284.422,68.803z M321.793,105.681l-7.136,168.35h-43.836 l-7.136-168.35C263.685,105.681,321.793,105.681,321.793,105.681z M364.422,289.913v21.973H221.057v-21.973H364.422z M255.147,69.702c1.186-0.589,2.511-0.899,3.834-0.899h6.303l-14.116,20.997h-36.556L255.147,69.702z M142.91,132.046 c-20.199-6.431-41.942,2.551-51.707,21.365c-5.852,11.275-1.956,25.314,8.868,31.962c11.121,6.83,19.658,16.808,24.688,28.854 c4.699,11.255,13.391,20.252,24.477,25.333c1.014,0.465,1.327,1.322,1.423,1.791c0.096,0.469,0.144,1.381-0.608,2.206 c-5.663,6.218-15.331,6.671-21.55,1.009l-48.922-44.544c-14.773-13.451-18.663-35.23-9.46-52.962l12.856-24.77 c11.228-21.635,33.401-34.628,57.426-34.055l4.226,28.39c0.98,6.591,4.176,12.429,8.748,16.806 C149.844,133.57,146.291,133.122,142.91,132.046z M177.196,90.625l0.005,0.01c-0.914,0.453-1.747,1.075-2.436,1.857 c-1.508,1.711-2.206,3.988-1.919,6.25l3.436,27.017h-2.642c-6.611,0-12.331-4.931-13.304-11.471l-3.865-25.966l24.56,0.401 L177.196,90.625z M189.738,105.681h58.052l7.136,168.35h-43.648c-0.075,0-0.138-0.056-0.148-0.13L189.738,105.681z M247.789,496.132l-58.053,0.005l21.394-168.24c0.01-0.074,0.073-0.13,0.148-0.13h43.648L247.789,496.132z M263.684,496.13 l7.137-168.363h43.836v0l7.136,168.357L263.684,496.13z M395.759,496.118l-58.07,0.005l-7.136-168.356h43.648 c0.074,0,0.138,0.056,0.147,0.13L395.759,496.118z M374.348,273.901c-0.01,0.074-0.072,0.13-0.147,0.13h-43.648l7.136-168.35 h58.051L374.348,273.901z"/> </g> </g> </g>
</svg>